<svg width="40" height="40" viewBox="0 0 40 40" fill="none" xmlns="http://www.w3.org/2000/svg">
<path d="M20.0002 0.833332C9.41441 0.833332 0.833496 9.41425 0.833496 20C0.833496 30.5857 9.41441 39.1667 20.0002 39.1667C30.5859 39.1667 39.1668 30.5857 39.1668 20C39.1668 9.41425 30.5859 0.833332 20.0002 0.833332Z" stroke="white" stroke-width="1.5" stroke-linecap="round" stroke-linejoin="round"/>
<path d="M5.18604 32.1632C5.18604 32.1632 9.45829 26.7083 20 26.7083C30.5416 26.7083 34.8158 32.1632 34.8158 32.1632M20 20C21.5249 20 22.9875 19.3942 24.0658 18.3159C25.1442 17.2375 25.75 15.775 25.75 14.25C25.75 12.725 25.1442 11.2625 24.0658 10.1841C22.9875 9.1058 21.5249 8.5 20 8.5C18.475 8.5 17.0124 9.1058 15.9341 10.1841C14.8558 11.2625 14.25 12.725 14.25 14.25C14.25 15.775 14.8558 17.2375 15.9341 18.3159C17.0124 19.3942 18.475 20 20 20Z" stroke="white" stroke-width="1.5" stroke-linecap="round" stroke-linejoin="round"/>
</svg>
