<svg width="40" height="40" viewBox="0 0 40 40" fill="none" xmlns="http://www.w3.org/2000/svg">
<path d="M6.66659 33.3334C5.74992 33.3334 4.96547 33.0073 4.31325 32.3551C3.66103 31.7029 3.33436 30.9179 3.33325 30.0001V10.0001C3.33325 9.08341 3.65992 8.29897 4.31325 7.64675C4.96659 6.99453 5.75103 6.66786 6.66659 6.66675H33.3333C34.2499 6.66675 35.0349 6.99341 35.6883 7.64675C36.3416 8.30008 36.6677 9.08453 36.6666 10.0001V30.0001C36.6666 30.9167 36.3405 31.7017 35.6883 32.3551C35.036 33.0084 34.251 33.3345 33.3333 33.3334H6.66659ZM19.9999 21.6667L6.66659 13.3334V30.0001H33.3333V13.3334L19.9999 21.6667ZM19.9999 18.3334L33.3333 10.0001H6.66659L19.9999 18.3334ZM6.66659 13.3334V10.0001V30.0001V13.3334Z" fill="white"/>
</svg>
