<svg width="25" height="25" viewBox="0 0 25 25" fill="none" xmlns="http://www.w3.org/2000/svg">
<path opacity="0.3" d="M12.4998 4.16663C7.89567 4.16663 4.1665 7.89579 4.1665 12.5C4.1665 17.1041 7.89567 20.8333 12.4998 20.8333C17.104 20.8333 20.8332 17.1041 20.8332 12.5C20.8332 7.89579 17.104 4.16663 12.4998 4.16663ZM7.2915 14.0625C6.42692 14.0625 5.729 13.3645 5.729 12.5C5.729 11.6354 6.42692 10.9375 7.2915 10.9375C8.15609 10.9375 8.854 11.6354 8.854 12.5C8.854 13.3645 8.15609 14.0625 7.2915 14.0625ZM12.4998 14.0625C11.6353 14.0625 10.9373 13.3645 10.9373 12.5C10.9373 11.6354 11.6353 10.9375 12.4998 10.9375C13.3644 10.9375 14.0623 11.6354 14.0623 12.5C14.0623 13.3645 13.3644 14.0625 12.4998 14.0625ZM17.7082 14.0625C16.8436 14.0625 16.1457 13.3645 16.1457 12.5C16.1457 11.6354 16.8436 10.9375 17.7082 10.9375C18.5728 10.9375 19.2707 11.6354 19.2707 12.5C19.2707 13.3645 18.5728 14.0625 17.7082 14.0625Z" fill="#F24822"/>
<path d="M12.5002 2.08337C6.75016 2.08337 2.0835 6.75004 2.0835 12.5C2.0835 18.25 6.75016 22.9167 12.5002 22.9167C18.2502 22.9167 22.9168 18.25 22.9168 12.5C22.9168 6.75004 18.2502 2.08337 12.5002 2.08337ZM12.5002 20.8334C7.896 20.8334 4.16683 17.1042 4.16683 12.5C4.16683 7.89587 7.896 4.16671 12.5002 4.16671C17.1043 4.16671 20.8335 7.89587 20.8335 12.5C20.8335 17.1042 17.1043 20.8334 12.5002 20.8334Z" fill="#F24822"/>
<path d="M7.2915 14.0625C8.15445 14.0625 8.854 13.3629 8.854 12.5C8.854 11.6371 8.15445 10.9375 7.2915 10.9375C6.42856 10.9375 5.729 11.6371 5.729 12.5C5.729 13.3629 6.42856 14.0625 7.2915 14.0625Z" fill="#F24822"/>
<path d="M12.5 14.0625C13.3629 14.0625 14.0625 13.3629 14.0625 12.5C14.0625 11.6371 13.3629 10.9375 12.5 10.9375C11.6371 10.9375 10.9375 11.6371 10.9375 12.5C10.9375 13.3629 11.6371 14.0625 12.5 14.0625Z" fill="#F24822"/>
<path d="M17.7085 14.0625C18.5714 14.0625 19.271 13.3629 19.271 12.5C19.271 11.6371 18.5714 10.9375 17.7085 10.9375C16.8456 10.9375 16.146 11.6371 16.146 12.5C16.146 13.3629 16.8456 14.0625 17.7085 14.0625Z" fill="#F24822"/>
</svg>
