<svg width="24" height="24" viewBox="0 0 24 24" fill="none" xmlns="http://www.w3.org/2000/svg">
<path fill-rule="evenodd" clip-rule="evenodd" d="M15.1816 3.5145C15.3209 3.37503 15.4863 3.2644 15.6684 3.18891C15.8505 3.11342 16.0457 3.07457 16.2429 3.07457C16.44 3.07457 16.6352 3.11342 16.8173 3.18891C16.9994 3.2644 17.1648 3.37503 17.3041 3.5145L20.4841 6.696C20.6236 6.83531 20.7342 7.00074 20.8097 7.18284C20.8852 7.36494 20.924 7.56013 20.924 7.75725C20.924 7.95437 20.8852 8.14956 20.8097 8.33166C20.7342 8.51376 20.6236 8.67919 20.4841 8.8185L8.8201 20.4855C8.53881 20.7667 8.15735 20.9247 7.7596 20.9247C7.36186 20.9247 6.98039 20.7667 6.6991 20.4855L3.5161 17.304C3.37664 17.1647 3.266 16.9993 3.19051 16.8172C3.11503 16.6351 3.07617 16.4399 3.07617 16.2428C3.07617 16.0456 3.11503 15.8504 3.19051 15.6683C3.266 15.4862 3.37664 15.3208 3.5161 15.1815L15.1816 3.5145ZM6.5041 14.3145L4.5751 16.242L7.7581 19.425L19.4251 7.758L16.2436 4.575L14.3146 6.504L16.0606 8.25L15.0001 9.3105L13.2541 7.5645L12.0646 8.754L13.8106 10.5L12.7501 11.5605L11.0041 9.8145L9.8146 11.004L11.5606 12.75L10.5001 13.8105L8.7541 12.0645L7.5646 13.254L9.3106 15L8.2501 16.0605L6.5041 14.3145Z" fill="white"/>
</svg>
