<svg width="24" height="24" viewBox="0 0 24 24" fill="none" xmlns="http://www.w3.org/2000/svg">
<path d="M4 20V18H6V11C6 9.61667 6.41667 8.38767 7.25 7.313C8.08333 6.23834 9.16667 5.534 10.5 5.2V4.5C10.5 4.08334 10.646 3.72934 10.938 3.438C11.23 3.14667 11.584 3.00067 12 3C12.416 2.99934 12.7703 3.14534 13.063 3.438C13.3557 3.73067 13.5013 4.08467 13.5 4.5V5.2C14.8333 5.53334 15.9167 6.23767 16.75 7.313C17.5833 8.38834 18 9.61734 18 11V18H20V20H4ZM12 23C11.45 23 10.9793 22.8043 10.588 22.413C10.1967 22.0217 10.0007 21.5507 10 21H14C14 21.55 13.8043 22.021 13.413 22.413C13.0217 22.805 12.5507 23.0007 12 23Z" fill="white"/>
</svg>
