<svg width="24" height="24" viewBox="0 0 24 24" fill="none" xmlns="http://www.w3.org/2000/svg">
<path d="M12 22C10.6167 22 9.31667 21.7373 8.1 21.212C6.88334 20.6867 5.825 19.9743 4.925 19.075C4.025 18.1757 3.31267 17.1173 2.788 15.9C2.26333 14.6827 2.00067 13.3827 2 12C1.99933 10.6173 2.262 9.31733 2.788 8.1C3.314 6.88267 4.02633 5.82433 4.925 4.925C5.82367 4.02567 6.882 3.31333 8.1 2.788C9.318 2.26267 10.618 2 12 2C13.382 2 14.682 2.26267 15.9 2.788C17.118 3.31333 18.1763 4.02567 19.075 4.925C19.9737 5.82433 20.6863 6.88267 21.213 8.1C21.7397 9.31733 22.002 10.6173 22 12C21.998 13.3827 21.7353 14.6827 21.212 15.9C20.6887 17.1173 19.9763 18.1757 19.075 19.075C18.1737 19.9743 17.1153 20.687 15.9 21.213C14.6847 21.739 13.3847 22.0013 12 22ZM9.1 19.45L10.3 16.7C9.6 16.45 8.996 16.0627 8.488 15.538C7.98 15.0133 7.584 14.4007 7.3 13.7L4.55 14.85C4.93333 15.9167 5.525 16.85 6.325 17.65C7.125 18.45 8.05 19.05 9.1 19.45ZM7.3 10.3C7.58333 9.6 7.97933 8.98767 8.488 8.463C8.99667 7.93833 9.60067 7.55067 10.3 7.3L9.15 4.55C8.08333 4.95 7.15 5.55 6.35 6.35C5.55 7.15 4.95 8.08333 4.55 9.15L7.3 10.3ZM12 15C12.8333 15 13.5417 14.7083 14.125 14.125C14.7083 13.5417 15 12.8333 15 12C15 11.1667 14.7083 10.4583 14.125 9.875C13.5417 9.29167 12.8333 9 12 9C11.1667 9 10.4583 9.29167 9.875 9.875C9.29167 10.4583 9 11.1667 9 12C9 12.8333 9.29167 13.5417 9.875 14.125C10.4583 14.7083 11.1667 15 12 15ZM14.9 19.45C15.95 19.05 16.871 18.4543 17.663 17.663C18.455 16.8717 19.0507 15.9507 19.45 14.9L16.7 13.7C16.45 14.4 16.0667 15.0043 15.55 15.513C15.0333 16.0217 14.4333 16.4173 13.75 16.7L14.9 19.45ZM16.7 10.25L19.45 9.1C19.05 8.05 18.4543 7.12933 17.663 6.338C16.8717 5.54667 15.9507 4.95067 14.9 4.55L13.75 7.35C14.4333 7.6 15.025 7.97933 15.525 8.488C16.025 8.99667 16.4167 9.584 16.7 10.25Z" fill="white"/>
</svg>
