<svg width="25" height="25" viewBox="0 0 25 25" fill="none" xmlns="http://www.w3.org/2000/svg">
<path fill-rule="evenodd" clip-rule="evenodd" d="M13.6039 16.7292C13.311 17.0218 12.9138 17.1861 12.4998 17.1861C12.0857 17.1861 11.6886 17.0218 11.3956 16.7292L5.50186 10.8375C5.20888 10.5444 5.04434 10.1469 5.04443 9.73245C5.04453 9.31801 5.20926 8.92059 5.50238 8.62761C5.7955 8.33462 6.193 8.17008 6.60743 8.17018C7.02187 8.17028 7.41929 8.33501 7.71227 8.62813L12.4998 13.4156L17.2873 8.62813C17.5818 8.34336 17.9764 8.18568 18.3861 8.18905C18.7958 8.19241 19.1878 8.35656 19.4776 8.64612C19.7675 8.93568 19.932 9.3275 19.9357 9.73719C19.9395 10.1469 19.7822 10.5416 19.4977 10.8365L13.605 16.7302L13.6039 16.7292Z" fill="white"/>
</svg>
