<svg width="40" height="40" viewBox="0 0 40 40" fill="none" xmlns="http://www.w3.org/2000/svg">
<path d="M30.1249 2.59009L37.0799 9.84009V37.4101H11.0986V37.5001H37.1686V9.93134L30.1249 2.59009Z" fill="#909090"/>
<path d="M30.0385 2.5H11.0098V37.41H37.0798V9.84125L30.0385 2.5Z" fill="#F4F4F4"/>
<path d="M10.8186 4.375H2.83105V12.9087H27.9561V4.375H10.8186Z" fill="#7A7B7C"/>
<path d="M28.0899 12.7636H2.99365V4.22363H28.0899V12.7636Z" fill="#DD2025"/>
<path d="M11.3149 5.66758H9.68115V11.6676H10.9662V9.64383L11.2499 9.66008C11.5257 9.65628 11.799 9.60686 12.0587 9.51383C12.2869 9.43632 12.4967 9.31249 12.6749 9.15008C12.8576 8.99689 13.0012 8.80234 13.0937 8.58258C13.2202 8.21848 13.265 7.83096 13.2249 7.44758C13.2178 7.17365 13.1697 6.90232 13.0824 6.64258C13.0037 6.45484 12.8867 6.2856 12.7388 6.1457C12.5909 6.00579 12.4155 5.89829 12.2237 5.83008C12.0583 5.76884 11.8869 5.72526 11.7124 5.70008C11.5806 5.67861 11.4472 5.66775 11.3137 5.66758M11.0774 8.53508H10.9662V6.68508H11.2074C11.3139 6.6774 11.4207 6.69375 11.52 6.73291C11.6193 6.77207 11.7086 6.83305 11.7812 6.91133C11.9316 7.1126 12.0119 7.35759 12.0099 7.60883C12.0099 7.91633 12.0099 8.19508 11.7324 8.39133C11.5325 8.50142 11.3049 8.55219 11.0774 8.53508ZM15.6662 5.65133C15.5274 5.65133 15.3924 5.66133 15.2974 5.66508L14.9999 5.67258H14.0249V11.6726H15.1724C15.6109 11.6839 16.0474 11.6096 16.4574 11.4538C16.7875 11.3235 17.0798 11.1124 17.3074 10.8401C17.5305 10.5665 17.6897 10.2467 17.7737 9.90383C17.8722 9.51624 17.9201 9.1175 17.9162 8.71758C17.9406 8.24528 17.9041 7.77179 17.8074 7.30883C17.7149 6.96844 17.5436 6.65458 17.3074 6.39258C17.1221 6.18072 16.8943 6.01034 16.6387 5.89258C16.4197 5.79108 16.1893 5.71637 15.9524 5.67008C15.8582 5.65464 15.7628 5.64753 15.6674 5.64883M15.4399 10.5701H15.3149V6.74008H15.3312C15.5889 6.71028 15.8496 6.75679 16.0812 6.87383C16.2507 7.00924 16.3889 7.17983 16.4862 7.37383C16.5911 7.578 16.6516 7.80209 16.6637 8.03133C16.6749 8.30633 16.6637 8.53133 16.6637 8.71758C16.6683 8.93212 16.6545 9.14666 16.6224 9.35883C16.5831 9.57641 16.5119 9.78701 16.4112 9.98383C16.2973 10.1674 16.1419 10.3215 15.9574 10.4338C15.8033 10.5338 15.6206 10.5804 15.4374 10.5663M21.7874 5.67258H18.7499V11.6726H20.0349V9.29258H21.6599V8.17758H20.0349V6.78758H21.7849V5.67258" fill="#464648"/>
<path d="M27.2264 25.3186C27.2264 25.3186 31.2114 24.5961 31.2114 25.9574C31.2114 27.3186 28.7426 26.7649 27.2264 25.3186ZM24.2801 25.4224C23.6469 25.5619 23.0298 25.7668 22.4389 26.0336L22.9389 24.9086C23.4389 23.7836 23.9576 22.2499 23.9576 22.2499C24.5528 23.255 25.247 24.1981 26.0301 25.0649C25.4406 25.1527 24.8564 25.2729 24.2801 25.4249V25.4224ZM22.7026 17.2974C22.7026 16.1111 23.0864 15.7874 23.3851 15.7874C23.6839 15.7874 24.0201 15.9311 24.0314 16.9611C23.9339 17.9968 23.717 19.0178 23.3851 20.0036C22.9289 19.1765 22.6934 18.2457 22.7014 17.3011L22.7026 17.2974ZM16.8914 30.4424C15.6689 29.7111 19.4551 27.4599 20.1414 27.3874C20.1376 27.3886 18.1714 31.2074 16.8914 30.4424ZM32.3751 26.1186C32.3626 25.9936 32.2501 24.6099 29.7876 24.6686C28.7612 24.6506 27.7351 24.723 26.7214 24.8849C25.7387 23.8958 24.8929 22.7796 24.2064 21.5661C24.6386 20.3153 24.9005 19.0119 24.9851 17.6911C24.9489 16.1911 24.5901 15.3311 23.4401 15.3436C22.2901 15.3561 22.1226 16.3624 22.2739 17.8599C22.4219 18.8662 22.7014 19.8488 23.1051 20.7824C23.1051 20.7824 22.5739 22.4361 21.8714 24.0811C21.1689 25.7261 20.6889 26.5886 20.6889 26.5886C19.4671 26.9859 18.317 27.5767 17.2826 28.3386C16.2526 29.2974 15.8339 30.0336 16.3764 30.7699C16.8439 31.4049 18.4801 31.5486 19.9426 29.6324C20.7183 28.6417 21.4282 27.6011 22.0676 26.5174C22.0676 26.5174 24.2976 25.9061 24.9914 25.7386C25.6851 25.5711 26.5239 25.4386 26.5239 25.4386C26.5239 25.4386 28.5601 27.4874 30.5239 27.4149C32.4876 27.3424 32.3926 26.2411 32.3801 26.1211" fill="#DD2025"/>
<path d="M29.9424 2.59619V9.93744H36.9836L29.9424 2.59619Z" fill="#909090"/>
<path d="M30.0386 2.5V9.84125H37.0798L30.0386 2.5Z" fill="#F4F4F4"/>
<path d="M11.2187 5.57115H9.58496V11.5711H10.875V9.54865L11.16 9.5649C11.4358 9.5611 11.709 9.51168 11.9687 9.41865C12.197 9.34114 12.4068 9.2173 12.585 9.0549C12.7663 8.90128 12.9085 8.70677 13 8.4874C13.1265 8.12329 13.1713 7.73578 13.1312 7.3524C13.1241 7.07846 13.0761 6.80713 12.9887 6.5474C12.91 6.35966 12.793 6.19042 12.6451 6.05051C12.4972 5.9106 12.3218 5.8031 12.13 5.7349C11.9638 5.67306 11.7916 5.62906 11.6162 5.60365C11.4844 5.58218 11.351 5.57131 11.2175 5.57115M10.9812 8.43865H10.87V6.58865H11.1125C11.2189 6.58097 11.3258 6.59731 11.4251 6.63648C11.5244 6.67564 11.6136 6.73661 11.6862 6.8149C11.8366 7.01617 11.917 7.26115 11.915 7.5124C11.915 7.8199 11.915 8.09865 11.6375 8.2949C11.4376 8.40499 11.21 8.4545 10.9825 8.4374M15.57 5.5549C15.4312 5.5549 15.2962 5.5649 15.2012 5.56865L14.9075 5.57615H13.9325V11.5761H15.08C15.5184 11.5874 15.9549 11.5131 16.365 11.3574C16.6951 11.227 16.9873 11.016 17.215 10.7436C17.438 10.4701 17.5973 10.1502 17.6812 9.8074C17.7798 9.4198 17.8277 9.02106 17.8237 8.62115C17.8482 8.14884 17.8116 7.67535 17.715 7.2124C17.6224 6.87201 17.4511 6.55815 17.215 6.29615C17.0297 6.08428 16.8018 5.91391 16.5462 5.79615C16.3272 5.69465 16.0968 5.61994 15.86 5.57365C15.7658 5.55821 15.6704 5.5511 15.575 5.5524M15.3475 10.4736H15.2225V6.64365H15.2387C15.4964 6.61385 15.7572 6.66035 15.9887 6.7774C16.1583 6.91281 16.2965 7.0834 16.3937 7.2774C16.4987 7.48157 16.5592 7.70565 16.5712 7.9349C16.5825 8.2099 16.5712 8.4349 16.5712 8.62115C16.5758 8.83568 16.562 9.05022 16.53 9.2624C16.4906 9.47998 16.4195 9.69057 16.3187 9.8874C16.2049 10.071 16.0495 10.2251 15.865 10.3374C15.7109 10.4374 15.5281 10.484 15.345 10.4699M21.6912 5.57615H18.6537V11.5761H19.9387V9.19615H21.5637V8.08115H19.9387V6.69115H21.6887V5.57615" fill="white"/>
</svg>
